<?xml version="1.0" encoding="UTF-8"?>
<svg id="Layer_1" data-name="Layer 1" xmlns="http://www.w3.org/2000/svg" viewBox="0 0 291.63 55.8">
  <defs>
    <style>
      .cls-1 {
        letter-spacing: -.03em;
      }

      .cls-2 {
        letter-spacing: .08em;
      }

      .cls-3 {
        letter-spacing: .02em;
      }

      .cls-4 {
        letter-spacing: .01em;
      }

      .cls-5 {
        fill: #706f6f;
        font-size: 6.52px;
      }

      .cls-6 {
        letter-spacing: -.03em;
      }

      .cls-7 {
        letter-spacing: -.03em;
      }
    </style>
  </defs>
  <path d="M261.46,31.65l-1.49,2.46-3.35,1.35-.62-2.27,.66-1.73,7.96-3.3,1.93,2.08-5.09,1.41Zm3.08,2.03l-2.39,2.67-.82,.44-2.77,2.24,.24-1.72,2.46-3.09,.9-1.73,4.5-.75-2.11,1.94h0Zm-45.77,19.56l-.54-.09,1.43-1.32,1.25,.17-2.14,1.25h0Zm72.43-28.86s-6.91-2.06-17.91-1.53c-.24,.64-.17,.73-.17,.73l-.58,1.27,2.14,.73-6.14,2.62-4.89-1.05s2.14-3.54,5.79-2.1c-.52-.48-.16-.31-.16-.31l-1.9-2.05,.02,.02-2.33-.8s-.69,.03,1.37-.62,9.41,1.03,9.41,1.03c0,0-.91-1.09-4.35-1.84-.19-.07-11.6-2.81-14.99,2.68-.36,.58-1.63,.74-1.68,.68-.68-.88-1.12-3.94-1.7-7.44-.61-3.7-1.38-7.89-2.75-10.46-3.35-3.07-15.03-4.94-15.03-4.94l3.82,5.72,1.35,2.9,6.09-.28,1.13,1.98-7-.42s.28,2.44,.34,2.47c.07,.03,6.95,.13,6.95,.13l-.43,1.77-6.5-.44-.37,2.08,7.11,.5,.66,1.84-8.2-.84-.82,1.69,9.33,1.64,.09,2-9.67-3.04-1.05,.68s7.1,4.76,7.98,4.81l5.93,1.34-5.7-.67c-3.06-.23-15.36-10.26-18.58-12.58-3.22-2.32-21.91-5.33-21.91-5.33,.1,.82,6.59,6.51,8.11,8.61,1.52,2.1,3.54,5.58,3.54,5.58l6.42-4.55c-.04,.07,1.65,1.57,1.65,1.57l-7.04,4.95,.77,2.63,8.04-5.56,1.14,2.31-8.99,5.1,.33,2.13,10.03-5.4,2.03,2.2-12.01,5.13,.15,2.78,13.31-5.64,3.55,1.95-16.67,5.46,.09,.58s5.22,3.94,7.22,3.78c2-.16,3.13-.35,3.13-.35l-3.76,2.18-6.02,2.65-5.12,.46v.25s2.27,.87,2.27,.87l-4.25,.1-.09,.52v.55s-.13,.66-.13,.66l.22,.26-.15,.48,2.29,1.44,.56-.22-.43,.82,2.48,.53,2.56-1.72,.03-.29,1.19,.1s2.02,.36,6.44-1.63c16.38,6.34,31.84-9.18,31.84-9.18,0,0,4.54-4.47,6.43-8.03,.3-.56,1.31-1.5,1.86-1.88,.79-.4,7.61-3.49,8.45-3.48,10.29-1.84,13.19-2.68,13.96-2.88,.77-.19-.12-.39-.12-.39m-19.99,.51l-1.74,.17v-1.73s1.7-.09,1.7-.09l.04,1.65h0Zm-3.4-2.92l-2.6,3.42,7.27,.77,.94-3.3-5.61-.89Z"/>
  <g>
    <path d="M58.92,2.36c-4.72,.25-6.74,1.35-7.08,5.06-.34,2.53-.51,6.32-.51,14.16V55.55h-2.61L12.81,11.38h-.17v21.16c0,7.75,.25,11.8,.51,14.25,.42,4.3,2.36,5.31,8.09,5.65v2.36H1.26v-2.36c4.89-.25,7-1.35,7.42-5.48,.25-2.61,.51-6.66,.51-14.41V13.99c0-6.15-.17-6.49-1.69-8.51C5.82,3.37,3.96,2.7,0,2.36V0H12.48L47.62,42.31h.25V21.58c0-7.75-.34-11.63-.59-13.99-.42-3.79-2.44-4.89-8.26-5.23V0h19.89V2.36Z"/>
    <path d="M98.71,35.74c0,13.57-9.95,20.06-18.29,20.06-11.55,0-18.46-9.27-18.46-18.63,0-13.91,10.79-20.23,18.46-20.23,10.45,0,18.29,8.34,18.29,18.8Zm-28.91-1.26c0,10.62,4.64,18.54,11.55,18.54,5.23,0,9.52-3.88,9.52-15.42,0-9.86-3.96-17.87-11.29-17.87-5.23,0-9.78,5.23-9.78,14.75Z"/>
    <path d="M144.56,52.77c-3.88,.59-8.18,1.77-12.39,3.03l-.51-.51v-5.98c-1.94,1.43-3.88,2.95-6.24,4.38-2.44,1.43-4.21,2.11-6.49,2.11-5.65,0-10.45-3.46-10.45-12.56V26.72c0-4.64-.34-4.97-5.14-5.9v-1.94c3.96-.25,8.01-.76,12.05-1.52-.25,2.61-.25,6.57-.25,12.31v11.29c0,7.5,3.62,9.52,7.42,9.52,3.03,0,6.24-1.26,9.1-4.05V26.8c0-4.8-.51-5.14-6.57-5.98v-1.94c4.38-.25,8.77-.59,13.23-1.52v28.15c0,4.21,.67,4.8,3.88,4.97l2.36,.17v2.11Z"/>
    <path d="M170.19,27.9c-1.6-4.97-4.55-8.34-8.68-8.34-3.2,0-5.48,2.53-5.48,5.82,0,3.79,3.37,5.73,7.16,7.33,6.32,2.61,10.62,5.65,10.62,11.46,0,7.67-7.16,11.63-13.91,11.63-4.3,0-8.18-1.6-9.69-2.87-.59-1.18-1.35-6.91-1.35-9.95l2.19-.42c1.52,5.56,5.31,10.45,10.37,10.45,3.12,0,5.98-2.36,5.98-5.9s-2.44-5.73-6.66-7.67c-5.06-2.36-10.54-5.14-10.54-11.63,0-5.9,5.06-10.87,12.81-10.87,3.46,0,5.73,.76,7.5,1.43,.67,1.94,1.6,6.91,1.85,9.02l-2.19,.51Z"/>
    <path d="M210.31,47.62c-5.31,6.66-11.13,8.18-13.74,8.18-10.37,0-16.44-8.43-16.44-17.95,0-5.82,2.11-10.96,5.56-14.75,3.46-3.88,8.01-6.15,12.39-6.15,7,0,12.64,6.24,12.64,12.81,0,1.69-.42,2.36-1.94,2.7-1.43,.25-11.97,1.1-22,1.43,.08,11.46,6.66,16.18,12.56,16.18,3.37,0,6.57-1.35,9.61-4.21l1.35,1.77Zm-23.1-17.2c4.72,0,9.36-.08,14.24-.25,1.52,0,2.02-.51,2.02-1.69,.08-4.38-2.78-8.43-7.42-8.43-3.88,0-7.59,3.54-8.85,10.37Z"/>
  </g>
  <text class="cls-5" transform="translate(260.15 48.37) scale(1.02 1)"><tspan class="cls-2" x="0" y="0">E</tspan><tspan class="cls-1" x="3.73" y="0">s</tspan><tspan class="cls-7" x="6.09" y="0">t</tspan><tspan class="cls-3" x="8.08" y="0">.</tspan><tspan class="cls-4" x="9.57" y="0"> </tspan><tspan class="cls-6" x="11.05" y="0">1964</tspan></text>
</svg>